HIERARCHY
ROOT Hips
{
 OFFSET 0.000000 0.000000 0.000000
 CHANNELS 6 Xposition Yposition Zposition Yrotation Xrotation Zrotation
 JOINT Chest
 {
  OFFSET 0.000000 9.585900 0.002600
  CHANNELS 3 Yrotation Xrotation Zrotation
  JOINT Chest2
  {
   OFFSET 0.000000 9.601200 -0.005300
   CHANNELS 3 Yrotation Xrotation Zrotation
   JOINT Chest3
   {
    OFFSET 0.000000 9.561800 0.000000
    CHANNELS 3 Yrotation Xrotation Zrotation
    JOINT Chest4
    {
     OFFSET 0.000000 9.552100 0.000000
     CHANNELS 3 Yrotation Xrotation Zrotation
     JOINT Neck
     {
      OFFSET 0.000000 14.453000 0.000000
      CHANNELS 3 Yrotation Xrotation Zrotation
      JOINT Head
      {
       OFFSET 0.000000 8.936500 -0.011300
       CHANNELS 3 Yrotation Xrotation Zrotation
       End Site
       {
        OFFSET 0.000000 17.073600 -0.006000
       }
      }
     }
     JOINT RightCollar
     {
      OFFSET -2.921100 9.558500 0.000000
      CHANNELS 3 Yrotation Xrotation Zrotation
      JOINT RightShoulder
      {
       OFFSET -13.519700 0.000000 0.000000
       CHANNELS 3 Yrotation Xrotation Zrotation
       JOINT RightElbow
       {
        OFFSET 0.000000 -29.696600 0.000000
        CHANNELS 3 Yrotation Xrotation Zrotation
        JOINT RightWrist
        {
         OFFSET 0.000000 -24.004700 0.000000
         CHANNELS 3 Yrotation Xrotation Zrotation
         End Site
         {
          OFFSET 0.000000 -17.728500 0.000000
         }
        }
       }
      }
     }
     JOINT LeftCollar
     {
      OFFSET 2.921100 9.558500 0.000000
      CHANNELS 3 Yrotation Xrotation Zrotation
      JOINT LeftShoulder
      {
       OFFSET 13.519700 0.000000 0.000000
       CHANNELS 3 Yrotation Xrotation Zrotation
       JOINT LeftElbow
       {
        OFFSET 0.000000 -29.696600 0.000000
        CHANNELS 3 Yrotation Xrotation Zrotation
        JOINT LeftWrist
        {
         OFFSET 0.000000 -24.004700 0.000000
         CHANNELS 3 Yrotation Xrotation Zrotation
         End Site
         {
          OFFSET 0.000000 -17.728500 0.000000
         }
        }
       }
      }
     }
    }
   }
  }
 }
 JOINT RightHip
 {
  OFFSET -7.771700 -0.012900 -0.001300
  CHANNELS 3 Yrotation Xrotation Zrotation
  JOINT RightKnee
  {
   OFFSET 0.000000 -40.869800 0.001200
   CHANNELS 3 Yrotation Xrotation Zrotation
   JOINT RightAnkle
   {
    OFFSET 0.000000 -39.717900 0.002100
    CHANNELS 3 Yrotation Xrotation Zrotation
    JOINT RightToe
    {
     OFFSET 0.000000 -4.965400 11.033500
     CHANNELS 3 Yrotation Xrotation Zrotation
     End Site
     {
      OFFSET 0.000000 -1.423100 5.872300
     }
    }
   }
  }
 }
 JOINT LeftHip
 {
  OFFSET 7.771700 -0.012900 -0.001300
  CHANNELS 3 Yrotation Xrotation Zrotation
  JOINT LeftKnee
  {
   OFFSET 0.000000 -40.869800 0.001200
   CHANNELS 3 Yrotation Xrotation Zrotation
   JOINT LeftAnkle
   {
    OFFSET 0.000000 -39.717900 0.002100
    CHANNELS 3 Yrotation Xrotation Zrotation
    JOINT LeftToe
    {
     OFFSET 0.000000 -4.965400 11.033500
     CHANNELS 3 Yrotation Xrotation Zrotation
     End Site
     {
      OFFSET 0.000000 -1.423100 5.872300
     }
    }
   }
  }
 }
}
MOTION
Frames: 8
Frame Time: 0.008333
-32.167829 57.280622 92.874166 -177.069117 -49.196386 -1.619643 -2.403575 26.529162 2.572149 -0.455591 4.592921 0.394333 -0.708885 7.280185 0.609309 -1.931293 21.864336 1.607985 -5.371590 13.645538 -5.500523 -7.974195 -10.655631 -8.281494 4.622193 1.605560 -2.149025 21.895055 -32.457546 -20.276286 58.862638 -51.051223 -23.425720 15.232414 8.071389 -12.812595 -10.325751 -2.429426 -5.086777 -7.693237 -27.985151 -1.515508 -59.393921 -54.073154 20.549889 -23.003471 -4.112139 16.176378 7.076300 -22.583249 -5.161674 0.397038 78.327582 5.650198 5.762569 -5.690850 2.657560 -0.027332 0.166280 -0.033331 -11.884156 -27.164966 -7.577833 43.125688 75.981280 38.137369 -26.401633 -4.069238 -2.388217 -0.304817 -0.754880 -0.066542
-32.162583 57.277904 92.867725 -177.082353 -49.198118 -1.644180 -2.364056 26.530825 2.623525 -0.453572 4.590476 0.393612 -0.686865 7.268962 0.613360 -1.945234 21.864782 1.602908 -5.398515 13.583861 -5.509858 -8.015139 -10.664331 -8.269368 4.703309 1.613409 -2.154341 21.879529 -32.455193 -20.286095 58.756476 -51.030160 -23.370638 15.244111 8.073915 -12.832459 -10.314525 -2.439851 -5.094018 -7.715187 -28.020203 -1.467426 -59.297801 -54.072707 20.413817 -23.002176 -4.098441 16.168015 7.078086 -22.586948 -5.117270 0.377061 78.331396 5.632272 5.762398 -5.696561 2.662266 -0.025535 0.161379 -0.031113 -11.881452 -27.154980 -7.542695 43.131648 75.996047 38.149327 -26.380552 -4.055528 -2.376788 -0.337068 -0.778401 -0.079002
-32.166333 57.274350 92.860352 -177.089089 -49.191226 -1.619023 -2.339138 26.525898 2.633270 -0.465814 4.584095 0.383751 -0.685843 7.262533 0.611723 -1.940510 21.857212 1.599868 -5.422584 13.561253 -5.511109 -8.059657 -10.706701 -8.261908 4.737456 1.620208 -2.153780 21.880361 -32.453286 -20.294226 58.694708 -51.010771 -23.320552 15.249434 8.069291 -12.852826 -10.301275 -2.453843 -5.098806 -7.737985 -28.034898 -1.431173 -59.215542 -54.044258 20.307011 -22.994656 -4.097418 16.167712 7.114378 -22.596370 -5.146522 0.403020 78.351449 5.668075 5.759885 -5.713802 2.674443 -0.026072 0.156088 -0.030988 -11.860650 -27.165824 -7.562528 43.123180 76.006485 38.145518 -26.411893 -4.066601 -2.402303 -0.312803 -0.774092 -0.064966
-32.170029 57.270435 92.851776 -177.085090 -49.177570 -1.601421 -2.336504 26.514627 2.627819 -0.449332 4.577275 0.390386 -0.699269 7.256975 0.603488 -1.935035 21.848802 1.596755 -5.446975 13.549297 -5.509522 -8.104126 -10.754018 -8.254179 4.772997 1.624463 -2.154369 21.887617 -32.451394 -20.300330 58.637216 -50.980803 -23.224429 15.243950 8.075893 -12.917782 -10.258422 -2.495881 -5.112135 -7.788233 -28.011631 -1.396900 -59.153576 -54.030533 20.214288 -22.988328 -4.110197 16.173568 7.124509 -22.612447 -5.169385 0.497586 78.372096 5.753725 5.745999 -5.734832 2.683028 -0.026755 0.153114 -0.028449 -11.851922 -27.183503 -7.582481 43.123876 76.018533 38.144968 -26.419118 -4.082074 -2.418429 -0.348574 -0.767757 -0.078384
-32.172729 57.267894 92.840706 -177.099303 -49.171753 -1.575134 -2.321822 26.511046 2.624159 -0.442620 4.572898 0.392055 -0.696624 7.249156 0.601604 -1.944755 21.848574 1.593676 -5.459379 13.548131 -5.507329 -8.146736 -10.814675 -8.246425 4.821409 1.619953 -2.162209 21.855534 -32.447201 -20.290164 58.602625 -50.961200 -23.184533 15.255835 8.063484 -12.927439 -10.220870 -2.535056 -5.120212 -7.817224 -28.005357 -1.369264 -59.089767 -54.024937 20.115843 -22.978676 -4.097621 16.174348 7.154854 -22.621136 -5.185058 0.550339 78.394472 5.806355 5.725581 -5.754834 2.690595 -0.031082 0.146761 -0.023186 -11.833126 -27.192484 -7.596654 43.129376 76.046520 38.136182 -26.387192 -4.099783 -2.399287 -0.367885 -0.764582 -0.089576
-32.174026 57.264717 92.829246 -177.101147 -49.156897 -1.564610 -2.320486 26.497046 2.619120 -0.426134 4.570037 0.399135 -0.699739 7.243445 0.598016 -1.949584 21.847317 1.591498 -5.469936 13.521927 -5.511058 -8.182264 -10.843747 -8.235740 4.870245 1.615489 -2.172818 21.893762 -32.455168 -20.297309 58.487433 -50.911545 -23.135386 15.269927 8.050091 -12.920660 -10.189670 -2.569191 -5.127207 -7.840910 -28.006749 -1.342094 -59.025208 -54.017086 20.016148 -22.973433 -4.051129 16.157273 7.174111 -22.640627 -5.190784 0.583457 78.418309 5.837751 5.702341 -5.766978 2.692872 -0.028769 0.138491 -0.015601 -11.824878 -27.207130 -7.593486 43.112466 76.072178 38.111108 -26.397645 -4.124327 -2.398181 -0.353402 -0.753136 -0.077138
-32.177998 57.260944 92.817752 -177.122010 -49.134748 -1.521015 -2.299782 26.475907 2.610189 -0.424590 4.563559 0.396164 -0.715247 7.243723 0.592322 -1.885487 21.809214 1.583435 -5.509455 13.496585 -5.503778 -8.225410 -10.828072 -8.212275 4.868624 1.640398 -2.155141 21.936808 -32.468020 -20.305940 58.373255 -50.852753 -23.049092 15.258183 8.053575 -12.963923 -10.209123 -2.568023 -5.114681 -7.873111 -27.995575 -1.319184 -58.965994 -53.965545 19.940928 -22.961323 -4.087297 16.164038 7.213842 -22.668574 -5.219024 0.607444 78.447587 5.854672 5.689960 -5.785600 2.703687 -0.034936 0.133655 -0.012214 -11.799287 -27.233792 -7.616197 43.128983 76.093910 38.116286 -26.388959 -4.147757 -2.393684 -0.368688 -0.746601 -0.083221
-32.182727 57.259077 92.804376 -177.134020 -49.124589 -1.476703 -2.290158 26.467205 2.591135 -0.420950 4.553920 0.393416 -0.712435 7.239242 0.590152 -1.874009 21.792294 1.576177 -5.525230 13.491450 -5.499070 -8.256928 -10.837766 -8.197084 4.899423 1.653484 -2.152679 21.960086 -32.477502 -20.311360 58.290609 -50.788711 -22.911439 15.239018 8.043390 -13.064227 -10.192531 -2.582745 -5.114246 -7.919002 -27.959099 -1.308111 -58.937800 -53.939127 19.918409 -22.957075 -4.101786 16.157194 7.249280 -22.682106 -5.239968 0.555946 78.479489 5.777609 5.686599 -5.807359 2.730420 -0.033238 0.129044 -0.011278 -11.769516 -27.245975 -7.643798 43.111024 76.110283 38.090760 -26.426503 -4.164020 -2.387727 -0.386283 -0.743727 -0.090626
